<svg xmlns="http://www.w3.org/2000/svg" width="1440" height="1260" viewBox="0 0 480 420"><defs><filter id="dropS" x="-30%" y="-30%" width="160%" height="160%">
  <feDropShadow dx="0" dy="6" stdDeviation="7" flood-opacity=".22"/></filter></defs>
    <g filter="url(#dropS)">
    <path d="M60 110 h360 a18 18 0 0 1 18 18 v164 a18 18 0 0 1 -18 18 h-360 a18 18 0 0 1 -18 -18 v-164 a18 18 0 0 1 18 -18 z" fill="#ffffff" stroke="#ffffff" stroke-width="28" stroke-linejoin="round"/>
    <path d="M60 110 h360 a18 18 0 0 1 18 18 v164 a18 18 0 0 1 -18 18 h-360 a18 18 0 0 1 -18 -18 v-164 a18 18 0 0 1 18 -18 z" fill="#2F5249"/>
  </g>
      <rect x="32" y="122" width="416" height="176" rx="11" fill="none" stroke="#F6F1EA" stroke-width="4"/>
      <rect x="43" y="133" width="394" height="154" rx="6" fill="none" stroke="#B0DCE2" stroke-width="1.4" stroke-opacity=".7"/>
      <text x="240" y="166" font-family="Montserrat" font-weight="800" font-size="16" fill="#B0DCE2" text-anchor="middle" letter-spacing="7">ONE MONTH OF</text>
      <text x="240" y="202" font-family="Montserrat" font-weight="900" font-size="24" fill="#F6F1EA" text-anchor="middle" letter-spacing="3">SKI · WORK · REPEAT</text>
      <path d="M118 216 h244" stroke="#B0DCE2" stroke-width="1.5" stroke-opacity=".8"/>
      <image href="file:///workspace/nn-merch/wm-cream.png" x="190.0" y="220" width="100" height="40.0"/>
      <text x="240" y="278" font-family="Montserrat" font-weight="800" font-size="13" fill="#B0DCE2" text-anchor="middle" letter-spacing="5">HOKKAIDO, JAPAN</text>
  </svg>